<svg width="205" height="205" viewBox="0 0 205 205" fill="none" xmlns="http://www.w3.org/2000/svg">
<rect width="204.308" height="204.308" rx="33.0417" fill="url(#paint0_linear_165_2)"/>
<path d="M58.8398 175.001C57.3067 175.371 56.6723 176.402 56.6723 177.407C56.6723 178.676 57.9675 179.707 59.3685 179.707C59.8707 179.707 60.5316 179.548 61.0338 179.204C62.4083 178.279 62.8048 175.9 62.9634 173.257C62.9899 172.86 62.9899 172.358 62.9899 171.856C62.9899 171.089 62.9634 169.953 62.937 169.054C62.9106 167.97 62.8841 166.833 62.8841 165.75C62.8841 164.349 62.9634 162.816 63.2542 161.177C61.7211 162.789 59.8443 165.115 59.8443 167.653C59.8443 168.869 60.7166 169.635 61.2981 170.798C61.3774 170.957 61.4039 171.089 61.4039 171.248C61.4039 172.199 60.1615 173.177 59.6064 173.415C58.4698 172.702 57.2538 171.38 57.2538 169.265C57.2538 167.468 58.0204 165.591 58.972 163.899C60.0029 162.075 61.2453 160.701 62.0383 160.093C62.6462 159.617 63.6243 159.432 64.5494 159.432C65.7125 159.432 66.8491 159.696 66.8491 160.067C66.8491 160.119 66.8227 160.146 66.7963 160.199C66.1619 161.124 66.0033 163.159 66.0033 165.38C66.0033 167.864 66.2147 170.349 66.2147 173.019C66.2147 175.9 65.2103 178.438 63.2542 180.103C62.2497 180.975 60.373 181.53 58.6812 181.53C57.1481 181.53 55.615 181.081 54.6898 180.077C54.1347 179.495 53.9232 178.808 53.9232 178.094C53.9232 176.244 55.4564 174.367 57.4917 174.367C57.6503 174.367 58.6812 174.393 58.8398 175.001ZM78.6122 178.702C78.9029 178.702 79.2201 178.543 79.5373 178.279C80.1982 177.724 80.8326 176.746 80.9647 175.927C81.2819 175.979 81.7049 176.349 81.7049 177.01C81.7049 177.169 81.652 177.407 81.5727 177.618C81.3084 178.358 80.7004 179.231 79.9338 179.812C79.4316 180.209 78.9029 180.447 78.48 180.447C77.7399 180.447 75.8367 180.077 75.1494 177.962C74.9379 177.248 74.8586 176.482 74.8586 175.715C74.8586 174.737 74.9644 173.706 75.0437 172.702C75.0965 171.988 75.2023 171.142 75.2023 170.455C75.2023 169.688 75.0701 169.133 74.6207 169.133C74.3828 169.133 74.0392 169.53 73.6691 170.191C73.1933 171.063 72.6382 172.384 72.1624 173.785C71.2637 176.297 70.4971 179.099 70.4971 179.892V180.077C70.4971 180.341 70.365 180.447 70.1799 180.447C69.572 180.447 68.2767 179.284 67.986 177.486C67.9067 177.037 67.8802 176.587 67.8802 176.138C67.8802 175.292 67.986 173.944 68.0917 172.755C68.1974 171.301 68.3296 169.768 68.3296 168.631C68.3296 168.076 68.3032 167.626 68.2503 167.256C68.3825 167.23 68.5411 167.204 68.6997 167.204C69.4927 167.204 70.365 167.732 70.7879 168.71C70.9465 169.054 70.9729 169.688 70.9729 170.376C70.9729 171.829 70.7086 173.521 70.7086 174.446C70.7086 174.42 70.735 174.393 70.735 174.341C70.8672 173.838 71.3166 172.12 71.9774 170.508C72.5325 169.16 73.114 167.917 73.6427 167.547C74.0392 167.256 74.4886 167.124 74.9644 167.124C76.2596 167.124 77.6606 168.102 78.0042 169.212C78.1364 169.662 78.1892 170.243 78.1892 170.878C78.1892 171.829 78.0835 172.913 78.0042 173.865C77.9778 174.314 77.8192 175.583 77.8192 176.693C77.8192 177.539 77.8456 178.702 78.6122 178.702ZM84.1301 180.394C82.2269 180.394 81.3282 179.231 80.8524 177.856C80.6674 177.328 80.6145 176.376 80.6145 175.028C80.6145 173.442 80.6938 171.38 80.7995 169.265C80.7995 168.975 80.826 168.525 80.8524 168.182C79.9272 168.155 79.2135 168.102 79.0814 168.102C79.0814 168.102 78.9756 167.759 78.9756 167.441C78.9756 167.23 79.0285 167.045 79.1871 166.992C79.5572 166.886 80.1651 166.833 80.8788 166.807C80.9053 166.093 80.9053 165.512 80.9053 164.64C80.9053 163.371 80.9053 162.604 81.1696 161.785C81.3282 161.626 81.5661 161.547 81.8304 161.547C82.597 161.547 83.575 162.287 83.998 164.058C84.0508 164.269 84.0773 164.745 84.0773 165.459C84.0773 165.855 84.0773 166.278 84.0508 166.754C84.5531 166.754 85.0024 166.781 85.4254 166.781C85.9276 166.781 86.3505 166.754 86.6413 166.701C86.6942 166.833 86.7206 166.992 86.7206 167.124C86.7206 167.547 86.4034 167.864 85.5047 168.023C85.1082 168.102 84.5531 168.155 83.9451 168.182C83.8922 168.71 83.8129 169.265 83.7072 169.794C83.4693 171.909 83.3371 173.733 83.3371 175.239C83.3371 176.957 83.5486 178.226 84.0244 178.596C84.2094 178.755 84.4209 178.808 84.6588 178.808C85.7161 178.808 87.0378 177.38 87.3021 175.847C87.5929 175.874 88.0423 176.217 88.0423 176.957C88.0423 177.169 88.0158 177.433 87.8837 177.777C87.2228 179.548 85.7426 180.394 84.1301 180.394ZM93.6806 172.147C92.544 173.045 90.958 173.442 89.5306 173.442C89.5306 175.134 89.8478 176.772 90.7465 177.698C91.3545 178.358 92.0682 178.649 92.7555 178.649C93.6542 178.649 94.5794 178.2 95.3195 177.46C96.0596 176.72 96.6147 175.689 96.7998 174.578C97.302 174.578 97.6721 175.107 97.6721 175.794C97.6721 175.9 97.6721 176.006 97.6456 176.112C97.4606 177.142 96.9319 178.041 96.1654 178.755C95.0816 179.759 93.6013 180.367 92.0153 180.367C90.4558 180.367 88.7376 179.839 87.5481 178.332C86.5965 177.142 86.1736 175.371 86.1736 173.548C86.1736 171.697 86.6229 169.794 87.5745 168.419C88.5261 167.019 89.9007 166.463 91.2223 166.463C92.8083 166.463 94.3415 167.256 94.8173 168.314C95.0287 168.737 95.108 169.16 95.108 169.583C95.108 170.534 94.6058 171.406 93.6806 172.147ZM91.6981 167.785C90.6672 167.785 89.8214 170.085 89.5835 172.199C90.2443 172.067 90.8523 171.856 91.5131 171.433C92.3061 170.878 92.729 169.926 92.729 169.212C92.729 168.472 92.2532 167.785 91.6981 167.785ZM95.9374 172.596C95.7788 170.904 95.6995 168.631 95.6995 166.543C95.6995 164.322 95.8052 162.181 96.096 161.071C96.3339 160.067 96.9418 159.617 97.6555 159.617C98.5014 159.617 99.1887 159.987 99.7173 160.542C100.669 161.573 101.118 163.265 101.118 164.666C101.118 167.309 100.22 169.979 99.1887 172.834V173.495C99.1887 176.006 99.3473 178.068 100.272 178.623C100.405 178.702 100.537 178.728 100.669 178.728C101.092 178.728 101.515 178.385 101.885 177.935C102.387 177.328 102.757 176.508 102.863 175.927C103.154 175.979 103.577 176.455 103.577 177.195C103.577 177.645 103.444 177.935 103.259 178.253C102.757 179.099 101.806 179.971 101.198 180.209C100.775 180.367 100.352 180.447 99.9288 180.447C98.9243 180.447 97.9727 180.024 97.2855 179.099C96.4925 178.015 96.2281 175.636 95.9374 172.596ZM98.5278 170.27C98.5278 170.27 99.5323 166.939 99.5323 165.062C99.5323 164.111 99.3473 163.318 98.8186 163.318C98.3164 163.318 98.2371 164.349 98.2371 165.697C98.2371 167.468 98.3428 169.001 98.5278 170.27ZM102.262 172.596C102.103 170.904 102.024 168.631 102.024 166.543C102.024 164.322 102.13 162.181 102.42 161.071C102.658 160.067 103.266 159.617 103.98 159.617C104.826 159.617 105.513 159.987 106.042 160.542C106.993 161.573 107.443 163.265 107.443 164.666C107.443 167.309 106.544 169.979 105.513 172.834V173.495C105.513 176.006 105.672 178.068 106.597 178.623C106.729 178.702 106.861 178.728 106.993 178.728C107.416 178.728 107.839 178.385 108.209 177.935C108.711 177.328 109.082 176.508 109.187 175.927C109.478 175.979 109.901 176.455 109.901 177.195C109.901 177.645 109.769 177.935 109.584 178.253C109.082 179.099 108.13 179.971 107.522 180.209C107.099 180.367 106.676 180.447 106.253 180.447C105.249 180.447 104.297 180.024 103.61 179.099C102.817 178.015 102.553 175.636 102.262 172.596ZM104.852 170.27C104.852 170.27 105.857 166.939 105.857 165.062C105.857 164.111 105.672 163.318 105.143 163.318C104.641 163.318 104.561 164.349 104.561 165.697C104.561 167.468 104.667 169.001 104.852 170.27ZM109.194 178.226C108.824 177.116 108.798 176.191 108.798 175.186C108.798 173.918 108.93 172.517 109.035 171.089C109.168 169.609 109.353 168.076 109.353 166.543H109.564C110.304 166.543 111.362 166.913 111.943 168.155C112.181 168.684 112.26 169.292 112.26 169.979C112.26 170.666 112.181 171.433 112.128 172.252C112.022 173.6 111.864 174.949 111.864 176.376C111.864 177.169 111.89 177.883 112.181 178.253C112.313 178.438 112.525 178.517 112.789 178.517C113.053 178.517 113.423 178.279 113.688 178.015C114.375 177.38 114.904 176.27 114.983 175.9C115.3 175.9 115.697 176.349 115.697 176.799C115.697 177.222 115.512 177.83 115.247 178.306C114.507 179.627 113.476 180.394 112.34 180.394C110.701 180.394 109.591 179.389 109.194 178.226ZM110.41 161.415C110.939 161.415 111.547 161.626 112.075 161.97C112.71 162.366 113.186 162.974 113.186 163.714C113.186 164.454 112.419 164.798 111.705 164.798C110.912 164.798 110.014 164.375 109.432 163.741C109.088 163.344 108.903 162.921 108.903 162.551C108.903 162.313 108.983 162.102 109.115 161.917C109.353 161.6 109.802 161.415 110.41 161.415ZM121.372 183.249C121.636 182.773 121.795 182.271 121.927 181.715C121.531 181.874 119.918 182.641 119.495 182.958C119.337 183.064 119.019 183.301 119.019 183.513C119.019 183.804 119.442 183.989 119.945 183.989C120.447 183.989 121.055 183.777 121.372 183.249ZM118.782 177.988C119.284 177.988 119.918 176.614 120.632 175.081C121.24 173.733 121.689 172.12 122.112 170.587C121.954 169.424 121.134 168.499 120.341 168.499C119.178 168.499 118.226 171.301 117.962 173.468C117.883 174.156 117.856 174.763 117.856 175.292C117.856 177.116 118.253 177.988 118.782 177.988ZM122.059 179.971C122.059 179.469 122.112 178.649 122.112 177.275C122.112 176.006 122.376 174.341 122.376 173.838C121.716 175.847 120.923 178.068 119.945 179.284C119.522 179.812 118.967 180.262 118.2 180.262C117.618 180.262 117.037 180.024 116.482 179.548C115.821 178.966 115.239 178.068 114.843 176.799C114.579 175.9 114.42 174.922 114.42 173.944C114.42 172.199 114.869 170.481 115.689 169.133C116.561 167.759 117.883 166.807 119.495 166.807C120.394 166.807 121.689 167.362 122.35 168.578C122.429 168.287 122.482 167.97 122.509 167.706C122.535 167.574 122.773 167.521 123.064 167.521C123.83 167.521 124.993 167.97 125.39 168.657C125.469 168.816 125.496 168.948 125.496 169.133C125.337 170.217 125.443 171.036 125.337 172.913C125.258 174.367 125.126 177.83 125.126 178.147C125.681 177.75 126.209 177.354 126.659 176.984C127.187 176.561 127.61 176.112 127.901 175.715C128.192 175.874 128.562 176.244 128.562 176.799C128.562 177.063 128.43 177.433 128.165 177.803C127.505 178.702 126.289 179.521 124.941 180.235C124.755 181.715 124.333 183.275 123.46 184.306C122.614 185.31 121.055 185.786 119.654 185.786C118.702 185.786 116.561 185.495 116.561 184.042C116.561 183.751 116.667 183.46 116.825 183.169C117.381 182.297 118.729 181.636 119.945 181.055C120.764 180.658 122.059 179.971 122.059 179.971ZM134.26 172.147C133.123 173.045 131.537 173.442 130.11 173.442C130.11 175.134 130.427 176.772 131.326 177.698C131.934 178.358 132.647 178.649 133.335 178.649C134.233 178.649 135.159 178.2 135.899 177.46C136.639 176.72 137.194 175.689 137.379 174.578C137.881 174.578 138.251 175.107 138.251 175.794C138.251 175.9 138.251 176.006 138.225 176.112C138.04 177.142 137.511 178.041 136.745 178.755C135.661 179.759 134.181 180.367 132.595 180.367C131.035 180.367 129.317 179.839 128.127 178.332C127.176 177.142 126.753 175.371 126.753 173.548C126.753 171.697 127.202 169.794 128.154 168.419C129.105 167.019 130.48 166.463 131.802 166.463C133.388 166.463 134.921 167.256 135.397 168.314C135.608 168.737 135.687 169.16 135.687 169.583C135.687 170.534 135.185 171.406 134.26 172.147ZM132.277 167.785C131.247 167.785 130.401 170.085 130.163 172.199C130.824 172.067 131.432 171.856 132.092 171.433C132.885 170.878 133.308 169.926 133.308 169.212C133.308 168.472 132.833 167.785 132.277 167.785ZM139.689 177.09C139.689 178.173 139.715 179.099 139.794 180.129C139.609 180.235 139.398 180.262 139.186 180.262C138.341 180.262 137.442 179.548 137.177 178.834C136.86 178.041 136.755 176.217 136.755 174.288C136.755 173.204 136.781 171.75 136.807 170.719C136.834 169.873 136.86 169.107 136.86 168.499C136.86 167.944 136.807 167.521 136.755 167.23C136.94 167.177 137.125 167.151 137.31 167.151C138.076 167.151 138.763 167.626 139.186 168.314C139.715 169.107 139.768 170.191 139.768 171.301V172.332C140.006 171.539 140.297 170.798 140.561 170.296C140.535 170.111 140.508 169.9 140.508 169.715C140.508 169.45 140.535 169.107 140.614 168.763C140.799 167.997 141.09 167.415 141.486 167.098C141.645 166.966 141.83 166.913 142.041 166.913C142.887 166.913 144.024 167.812 144.024 168.869C144.024 169.583 142.94 170.825 142.94 170.825C142.94 170.825 143.416 172.199 144.685 172.464C144.764 172.49 144.87 172.49 144.949 172.49C145.795 172.49 146.588 171.75 146.799 170.904C147.249 170.957 147.539 171.354 147.539 171.988C147.539 173.336 146.297 174.156 144.79 174.156C143.31 174.156 142.015 173.442 141.301 172.358C140.957 172.913 140.614 173.653 140.323 174.42C139.953 175.371 139.689 176.402 139.689 177.09Z" fill="white"/>
<path fill-rule="evenodd" clip-rule="evenodd" d="M109.95 30.2902C113.585 28.9511 122.346 26.8468 128.315 29.1424C134.555 31.5424 135.375 37.7566 135.812 41.0687L135.812 41.0689L135.812 41.0691L135.812 41.0694C135.898 41.717 135.969 42.2535 136.063 42.629C136.636 44.9246 138.932 46.0724 146.393 45.7854C152.361 45.5558 163.036 45.6898 167.627 45.7854C172.792 45.9767 183.352 49.2862 184.27 60.9937C185.188 72.7012 185.609 113.314 185.705 132.157C185.896 137.226 183.065 147.423 170.209 147.652C154.14 147.939 131.758 147.939 121.715 145.07L167.627 141.626C170.783 142.009 177.154 140.651 177.383 132.157C177.613 123.663 177.479 82.7062 177.383 63.2893C177.574 60.0372 175.891 53.4756 167.627 53.2461C159.363 53.0165 146.584 52.3852 141.228 52.0983C138.071 51.7157 131.586 49.9175 130.897 45.7854C130.701 44.6069 130.669 43.5778 130.641 42.681C130.546 39.6475 130.499 38.1283 124.298 37.4639C117.87 36.7752 113.394 35.4552 111.959 34.8813C115.594 34.2118 123.953 33.504 128.315 36.0291C127.454 34.4987 122.576 31.2084 109.95 30.2902ZM147.54 57.8373L165.618 56.6895C168.583 56.6895 174.514 58.4111 174.514 65.2979C174.514 73.9064 173.94 84.5235 172.505 89.6886C171.397 93.678 171.316 91.1623 171.204 87.6949C171.171 86.673 171.136 85.5685 171.07 84.5235C171.028 83.8484 171.023 82.832 171.017 81.592C170.982 74.3997 170.91 59.6855 163.323 60.4198C154.427 61.2806 143.81 60.1328 147.54 57.8373ZM32.4739 124.122V100.306C28.7436 96.5754 27.8827 121.54 29.3175 130.148C30.7522 138.757 38.2129 139.331 39.3607 139.331C39.6134 139.331 39.7965 139.317 40.0417 139.298L40.042 139.298C40.9108 139.232 42.5594 139.107 50.8387 139.331C59.3323 139.56 61.6471 137.513 61.7427 136.461C59.0645 136.653 51.5847 136.92 43.091 136.461C32.4739 135.887 32.4739 126.418 32.4739 124.122ZM82.977 145.07C83.6465 146.122 74.8276 148.111 34.1956 147.652C23.8655 147.652 19.9438 139.235 19.2743 135.027V61.8546C19.6569 56.6895 23.1194 46.3593 33.9087 46.3593C35.0565 46.2637 37.3521 45.6706 37.3521 44.0637C37.3521 43.8548 37.3366 43.6304 37.3204 43.3963C37.1809 41.3792 36.9916 38.6415 46.2475 38.8986C54.5116 39.1282 57.1516 40.1421 57.4385 40.6203C54.4734 40.6203 48.3709 40.7351 47.6822 41.1942C47.1901 41.5224 49.6056 41.5691 51.3359 41.6025C52.632 41.6276 53.5435 41.6452 52.5604 41.7681C51.6708 41.8793 50.5659 42.0767 49.4458 42.2767L49.4458 42.2767L49.4458 42.2768C47.6754 42.593 45.8673 42.9159 44.8127 42.9159H41.9433V46.3593H43.378C43.378 45.5941 44.0667 44.0637 46.8214 44.0637C50.2648 44.0637 51.1256 44.6376 51.1256 45.4985C51.1256 46.1871 58.7776 45.9767 62.6036 45.7854C64.5166 45.6898 68.5147 43.9489 69.2034 37.7508C70.0643 30.0032 79.5336 26.8468 92.7332 30.2902C88.2377 30.8641 78.6153 32.5858 76.0902 34.8814H88.429C87.3768 35.8379 83.6656 37.7508 77.238 37.7508C76.0902 37.8465 73.7372 38.7839 73.5076 41.7681L73.4905 41.9936C73.2045 45.7797 72.6838 52.6722 60.308 52.6722C57.9328 52.6722 55.3038 52.5402 52.5947 52.4041L52.5946 52.4041C40.903 51.8171 27.7208 51.1551 27.0219 60.7068C26.1611 72.4717 27.8828 79.6454 41.0824 79.9323C43.9557 79.9948 46.625 80.0301 49.0282 80.0618C57.6652 80.1759 62.8652 80.2447 61.7427 81.3671C60.6397 82.4701 49.3611 82.8947 42.2487 83.1625C40.1096 83.243 38.3473 83.3094 37.3521 83.3757C33.0478 83.6627 27.8828 81.3671 26.1611 76.489L27.0219 135.027C27.4045 137.418 30.2931 142.258 38.7868 142.487C49.4039 142.774 78.3858 143.635 82.977 145.07ZM64.3253 55.2547C68.7251 54.107 77.3527 49.6879 76.6641 41.1943C78.4814 46.5506 78.5579 56.8617 64.3253 55.2547ZM31.958 62.9643C32.4027 62.4343 33.1821 61.5054 36.7782 61.2807C40.2142 61.0659 46.0609 61.1726 49.7478 61.2399H49.7479H49.748H49.7481H49.7482H49.7482H49.7482C50.9876 61.2625 51.9828 61.2807 52.5604 61.2807C54.8559 61.2807 56.8646 61.8546 57.1515 63.2893H49.117C48.83 63.385 48.2561 63.978 48.2561 65.5849C48.2561 67.3498 47.5915 67.3424 45.0943 67.3147C44.7495 67.3108 44.3697 67.3066 43.9519 67.3066C43.1011 67.3066 42.3204 67.3416 41.6271 67.3727L41.6269 67.3728C39.5142 67.4676 38.2129 67.526 38.2129 66.4458C38.2129 66.2871 38.2269 66.118 38.2414 65.9434L38.2414 65.9433V65.9433V65.9433V65.9432C38.358 64.5384 38.504 62.7789 31.6131 63.2893C31.7375 63.2271 31.8349 63.111 31.958 62.9643ZM60.8819 90.8364C63.8451 63.0281 86.4203 57.359 96.1766 57.8373C69.4903 70.463 65.4731 81.654 66.9078 103.462C68.0556 120.909 85.9421 131.392 94.7418 134.453C89.8637 136.748 57.1515 125.844 60.8819 90.8364ZM105.646 57.8373C113.872 56.3069 132.504 58.9851 141.228 81.941C152.132 110.636 127.454 134.16 110.237 134.453C119.419 131.296 137.727 119.531 137.497 97.7232C137.21 70.463 116.55 61.8546 105.646 57.8373ZM105.646 64.4371C73.7731 68.5497 72.2928 95.2264 71.918 101.981C71.8744 102.767 71.8458 103.283 71.7859 103.462C68.3425 89.4017 71.7859 75.9374 84.4117 68.4544C94.5123 62.468 102.776 63.2819 105.646 64.4371ZM132.619 101.454C129.176 111.21 116.493 130.148 93.3071 127.853C98.7591 129.861 110.581 133.707 121.141 126.131C131.701 118.556 133.193 106.523 132.619 101.454ZM85.5595 99.4449C84.6986 85.6713 101.342 79.6454 102.489 79.6454C95.8896 77.3498 88.429 81.941 85.5595 88.8278C83.2639 94.3372 84.603 98.2014 85.5595 99.4449ZM122.692 96.5754C122.692 107.733 113.647 116.778 102.49 116.778C91.332 116.778 82.2871 107.733 82.2871 96.5754C82.2871 85.4179 91.332 76.3729 102.49 76.3729C113.647 76.3729 122.692 85.4179 122.692 96.5754ZM125.445 96.5754C125.445 109.254 115.168 119.531 102.49 119.531C89.8113 119.531 79.5336 109.254 79.5336 96.5754C79.5336 83.8972 89.8113 73.6195 102.49 73.6195C115.168 73.6195 125.445 83.8972 125.445 96.5754Z" fill="white"/>
<defs>
<linearGradient id="paint0_linear_165_2" x1="204.308" y1="-1.21777e-05" x2="1.21777e-05" y2="204.308" gradientUnits="userSpaceOnUse">
<stop stop-color="#4F5BD5"/>
<stop offset="0.25" stop-color="#962FBF"/>
<stop offset="0.5" stop-color="#D62976"/>
<stop offset="0.75" stop-color="#FA7E1E"/>
<stop offset="1" stop-color="#FEDA75"/>
</linearGradient>
</defs>
</svg>
