<svg width="556" height="157" viewBox="0 0 556 157" fill="none" xmlns="http://www.w3.org/2000/svg">
<path d="M30.6683 91.1596C30.6683 91.9444 30.3544 93.2001 29.8835 93.514C21.4076 95.0836 18.1114 100.42 18.1114 105.6C18.1114 112.82 25.3316 118 32.7088 118C35.5341 118 38.6733 117.215 41.6556 115.332C49.9746 110.309 51.3872 97.4381 52.329 81.8989C52.4859 79.5445 52.4859 76.8761 52.4859 74.0508C52.4859 63.8483 51.8581 50.6636 51.8581 38.4206C51.8581 29.7877 52.172 21.7827 53.2707 15.6612C53.2707 15.6612 42.5974 26.8054 38.3594 39.8332C37.1037 43.7573 36.6328 46.8965 36.6328 49.5648C36.6328 58.3547 42.2834 61.3369 44.7948 67.3015C45.2657 68.5572 45.5796 69.8129 45.5796 71.0685C45.5796 77.347 38.6733 81.585 33.9645 84.5672C26.7443 80.3293 19.3671 72.3242 19.3671 58.8256C19.3671 55.5294 19.838 51.7623 20.9367 47.6813C26.4303 26.1776 40.5569 10.0106 47.4632 4.67388C51.2302 1.84859 57.1948 0.592895 62.8454 0.592895C65.6707 0.592895 76.658 1.53466 76.658 5.61566C76.658 6.08654 76.501 6.71438 76.1871 7.18527C72.577 12.208 71.6352 23.6662 71.6352 36.2231C71.6352 50.9775 73.0479 67.6154 73.0479 77.19C73.0479 96.6533 70.0656 110.78 55.7821 122.709C49.5037 127.889 38.9873 131.342 28.6278 131.342C19.524 131.342 10.5772 128.673 4.76967 122.395C1.47349 118.785 0.0608334 114.39 0.0608334 109.995C0.0608334 98.6938 9.63548 87.0786 21.8785 87.0786C26.7443 87.0786 30.6683 88.9621 30.6683 91.1596ZM157.808 96.3393C160.32 96.3393 164.087 98.8507 164.087 103.717C164.087 104.815 163.93 106.228 163.459 107.641C160.947 115.489 151.059 124.906 144.467 124.906C140.072 124.906 128.927 123.494 124.532 109.838C123.277 106.228 122.963 101.519 122.963 96.6533C122.963 93.0431 123.12 89.2761 123.434 85.666C123.905 78.9166 124.689 72.1673 124.689 67.4584C124.689 63.2205 124.062 60.5521 122.335 60.5521C118.725 60.5521 112.132 76.8761 106.953 92.8862C103.029 104.972 100.203 116.744 100.203 121.296C100.203 122.866 99.2616 123.494 97.849 123.494C95.9655 123.494 93.4541 122.395 90.9427 120.354C87.4895 117.529 84.3503 112.82 83.5655 106.856C83.4085 105.286 83.2516 103.403 83.2516 101.205C83.2516 95.7115 83.7225 88.4913 84.3503 81.1141C84.3503 80.4862 84.5073 79.8584 84.5073 79.2305C85.1351 71.3825 85.606 63.2205 85.606 56.942C85.606 52.861 85.449 49.7218 84.8212 47.5243C86.0769 47.0535 87.3326 46.7395 88.5883 46.7395C93.768 46.7395 99.4186 50.6636 101.616 56.1572C102.558 58.5116 102.872 62.2787 102.872 66.2027C102.872 73.5799 101.93 79.7014 101.459 83.6255C103.97 73.423 109.935 53.8028 116.37 48.937C118.882 47.0535 121.707 46.2687 124.532 46.2687C132.38 46.2687 140.699 52.2332 142.897 59.1395C143.525 61.18 143.682 64.6331 143.682 68.5572C143.682 73.7369 143.368 80.0153 142.897 86.1368C142.897 86.9216 142.74 87.7065 142.74 88.4913C142.426 93.8279 141.955 99.0077 141.955 103.089C141.955 107.641 142.426 110.937 143.682 111.722C144.31 112.035 144.937 112.349 145.565 112.349C147.92 112.349 150.588 110.152 152.942 107.17C155.454 103.873 157.494 99.7925 157.808 96.3393ZM179.43 124.592C167.658 124.592 162.321 117.529 159.496 109.21C158.554 106.542 158.24 101.048 158.24 93.514C158.24 90.5318 158.24 87.3925 158.397 83.9394C158.554 75.1495 158.868 65.104 159.339 54.9015C154.002 54.7446 149.921 54.5876 149.921 54.5876C149.921 54.5876 149.293 53.018 148.979 51.1345C148.822 50.3496 148.665 49.7218 148.665 48.937C148.665 47.3674 149.293 45.9547 150.863 45.4838C152.746 44.856 155.885 44.5421 159.653 44.3851C159.809 40.618 159.809 37.4788 159.809 34.6535C159.809 31.2004 159.653 28.3751 159.653 25.8637C159.653 22.2536 159.966 19.2713 161.536 16.446C162.321 15.0333 164.047 14.2485 165.774 14.2485C167.658 14.2485 169.698 15.0333 171.582 16.289C174.878 18.4865 177.546 22.7244 179.43 29.3168C179.901 30.7295 180.058 33.7117 180.058 37.6358C180.058 39.6763 180.058 41.8737 179.901 44.2282C186.022 44.2282 191.516 44.2282 194.027 43.7573C194.655 45.1699 195.126 46.5826 195.126 47.9952C195.126 49.094 194.812 50.0357 194.184 50.9775C193.085 52.5471 190.888 53.8028 187.278 54.2737C185.08 54.5876 182.255 54.9015 179.116 54.9015C179.116 57.4129 178.331 60.3952 178.017 63.0635C176.918 72.7951 175.82 83.4685 175.82 93.3571C175.82 103.403 176.918 110.152 179.273 111.879C180.371 112.663 181.47 112.977 182.726 112.977C185.551 112.977 188.69 111.094 191.202 107.954C193.87 104.658 195.911 100.263 196.381 95.8684C198.893 95.8684 202.66 98.5368 202.66 103.717C202.66 105.129 202.346 106.856 201.718 108.739C197.637 119.256 189.004 124.592 179.43 124.592ZM236.141 77.347C229.548 82.6837 220.915 84.7242 212.91 85.0381C213.067 93.671 215.108 101.99 219.503 106.856C222.642 110.309 226.409 111.879 230.176 111.879C234.414 111.879 238.809 109.995 242.576 106.699C247.599 102.461 251.366 95.8684 252.308 88.8052C252.621 88.8052 252.935 88.6482 253.249 88.6482C256.546 88.6482 259.214 92.2583 259.214 96.8102C259.214 107.641 248.384 118.628 237.396 122.552C234.257 123.651 230.176 124.435 225.938 124.435C216.991 124.435 206.789 121.296 199.726 112.349C194.232 105.443 191.564 94.9267 191.564 84.2533C191.564 73.423 194.232 62.2787 199.726 54.2737C205.533 45.7978 213.695 42.5016 221.543 42.5016C230.961 42.5016 239.908 47.3674 242.89 53.8028C244.146 56.6281 244.773 59.2964 244.773 61.6509C244.773 68.8711 239.908 74.3647 236.141 77.347ZM224.368 52.861C221.072 53.3319 218.404 56.7851 216.52 61.6509C215.108 65.4179 214.009 69.9698 213.381 74.9926C216.363 74.2078 219.032 73.109 222.485 70.9116C226.252 68.4002 228.763 64.0053 228.763 58.9825C228.763 55.5294 226.88 52.861 224.368 52.861ZM249.384 78.9166C248.442 69.4989 247.972 56.942 247.972 45.013C247.972 31.8282 248.599 19.4283 250.169 12.8359C251.739 6.40047 255.663 3.73212 260.214 3.73212C262.726 3.73212 265.394 4.51693 267.906 5.92958C273.87 9.38273 279.207 16.289 280.463 24.7649C280.933 27.7472 281.09 30.5725 281.09 33.5548C281.09 40.618 279.992 47.8383 278.422 54.5876C275.911 64.9471 272.457 74.2078 270.103 80.4862C270.103 87.5495 270.103 93.8279 270.731 99.1646C271.359 105.443 272.771 110.152 275.754 111.879C276.382 112.192 277.009 112.349 277.637 112.349C280.306 112.349 283.131 109.524 285.328 106.071C287.369 102.775 288.938 98.6938 288.938 96.3393C289.095 96.3393 289.409 96.1824 289.723 96.1824C292.078 96.1824 295.217 99.0077 295.217 104.344C295.217 104.972 295.217 105.6 295.06 106.228C294.275 112.663 285.799 121.453 280.776 123.337C278.108 124.435 275.283 124.906 272.614 124.906C266.807 124.906 261.47 122.395 257.232 116.587C252.68 110.152 250.954 96.6533 249.384 78.9166ZM265.551 62.2787C265.551 62.2787 267.749 53.8028 269.004 44.856C269.318 42.0307 269.789 38.4206 269.789 35.7522C269.789 31.0434 269.004 27.4333 266.336 27.4333C265.08 27.4333 264.609 33.0839 264.609 43.4433C264.609 52.5471 265.551 62.2787 265.551 62.2787ZM286.938 78.9166C285.997 69.4989 285.526 56.942 285.526 45.013C285.526 31.8282 286.154 19.4283 287.723 12.8359C289.293 6.40047 293.217 3.73212 297.769 3.73212C300.28 3.73212 302.948 4.51693 305.46 5.92958C311.424 9.38273 316.761 16.289 318.017 24.7649C318.488 27.7472 318.645 30.5725 318.645 33.5548C318.645 40.618 317.546 47.8383 315.976 54.5876C313.465 64.9471 310.012 74.2078 307.657 80.4862C307.657 87.5495 307.657 93.8279 308.285 99.1646C308.913 105.443 310.326 110.152 313.308 111.879C313.936 112.192 314.564 112.349 315.191 112.349C317.86 112.349 320.685 109.524 322.883 106.071C324.923 102.775 326.493 98.6938 326.493 96.3393C326.65 96.3393 326.964 96.1824 327.277 96.1824C329.632 96.1824 332.771 99.0077 332.771 104.344C332.771 104.972 332.771 105.6 332.614 106.228C331.829 112.663 323.353 121.453 318.331 123.337C315.662 124.435 312.837 124.906 310.169 124.906C304.361 124.906 299.024 122.395 294.786 116.587C290.235 110.152 288.508 96.6533 286.938 78.9166ZM303.105 62.2787C303.105 62.2787 305.303 53.8028 306.559 44.856C306.872 42.0307 307.343 38.4206 307.343 35.7522C307.343 31.0434 306.559 27.4333 303.89 27.4333C302.635 27.4333 302.164 33.0839 302.164 43.4433C302.164 52.5471 303.105 62.2787 303.105 62.2787ZM346.938 124.592C336.108 124.592 329.672 117.686 327.161 108.896C326.219 105.6 325.905 100.42 325.905 94.1419C325.905 78.1318 328.731 52.0762 328.731 45.013C328.731 44.3851 328.574 43.6003 328.574 43.2864C329.515 43.1294 330.457 42.9725 331.713 42.9725C334.538 42.9725 337.834 43.7573 340.817 46.1117C343.485 48.3091 345.996 51.7623 347.252 57.4129C347.409 58.3547 347.566 59.6104 347.566 61.3369C347.566 67.4584 346.467 77.6609 345.839 87.3925C345.525 91.6305 345.368 95.7115 345.368 99.3216C345.368 105.286 345.839 109.681 347.566 110.623C348.194 110.937 348.822 111.094 349.449 111.094C351.647 111.094 353.687 109.524 355.571 107.327C358.239 104.187 360.437 99.4786 361.222 96.1824C361.379 96.1824 361.692 96.0254 361.849 96.0254C364.047 96.0254 367.186 99.4786 367.186 103.56C367.186 104.03 367.186 104.501 367.029 104.972C365.303 114.076 356.67 124.592 346.938 124.592ZM330.771 14.8764C332.341 14.0916 334.067 13.7776 335.951 13.7776C340.66 13.7776 345.996 16.1321 349.449 20.2131C351.647 22.8814 352.746 25.7067 352.746 28.2181C352.746 31.2004 351.333 33.5548 348.351 34.8105C346.938 35.5953 345.055 35.9092 343.328 35.9092C338.462 35.9092 332.812 33.3978 329.515 29.3168C327.318 26.8054 326.219 23.9801 326.219 21.6257C326.219 18.6435 327.789 16.289 330.771 14.8764ZM404.025 111.565C404.025 103.56 404.182 93.0431 404.182 93.0431C402.613 98.2229 400.415 107.17 396.648 114.076C394.294 118.628 390.213 123.808 383.62 123.808C379.382 123.808 374.36 121.767 370.279 117.686C366.198 113.762 362.902 107.954 361.175 100.106C360.233 96.1824 359.762 91.9444 359.762 87.3925C359.762 80.8002 360.861 74.0508 362.745 67.7724C365.727 58.3547 371.377 50.1927 379.539 46.5826C382.522 45.3269 385.504 44.699 388.486 44.699C395.393 44.699 401.828 47.9952 406.066 53.9598L406.537 50.8205C406.694 49.2509 408.263 48.4661 410.461 48.4661C412.658 48.4661 415.484 49.2509 417.995 50.5066C421.605 52.2332 424.744 55.2155 424.744 58.6686C424.744 59.6104 424.273 64.3192 423.96 69.8129C423.646 76.2483 423.489 83.9394 423.332 90.3748C423.175 96.9672 423.175 100.891 422.861 109.681C429.296 105.286 434.633 100.577 437.301 96.6533C439.97 97.9089 442.481 100.734 442.481 104.501C442.481 106.385 441.853 108.582 440.127 110.937C436.359 116.273 429.453 120.982 421.762 125.063C420.506 133.539 418.152 142.172 413.129 148.137C408.577 153.473 401.043 156.299 393.509 156.769C387.074 156.769 375.301 156.612 372.319 147.823C372.005 146.881 372.005 145.939 372.005 145.154C372.005 136.678 382.365 131.813 391.939 127.418C394.765 126.005 399.003 123.965 403.712 121.296C403.868 117.686 404.025 114.076 404.025 111.565ZM392.096 58.3547C387.544 62.4357 384.562 71.6964 382.993 81.1141C382.208 85.9799 381.737 91.0026 381.737 95.2406C381.737 102.147 382.836 107.954 385.661 107.954C389.585 107.954 393.98 99.3216 397.59 88.4913C400.258 80.4862 402.77 71.2255 404.339 63.2205C402.927 59.4534 400.258 56.1572 396.962 56.1572C395.393 56.1572 393.823 56.7851 392.096 58.3547ZM388.172 142.486C387.858 142.957 387.858 143.428 387.858 143.742C387.858 144.84 388.957 145.468 390.684 145.468C391.625 145.468 392.881 145.311 393.98 144.84C396.02 144.056 398.061 142.643 399.474 140.289C400.258 138.876 401.043 136.992 401.671 134.795C398.532 136.208 395.706 137.62 393.509 138.719C390.684 140.132 388.643 141.387 388.172 142.486ZM477.101 77.347C470.508 82.6837 461.876 84.7242 453.87 85.0381C454.027 93.671 456.068 101.99 460.463 106.856C463.602 110.309 467.369 111.879 471.136 111.879C475.374 111.879 479.769 109.995 483.536 106.699C488.559 102.461 492.326 95.8684 493.268 88.8052C493.582 88.8052 493.896 88.6482 494.21 88.6482C497.506 88.6482 500.174 92.2583 500.174 96.8102C500.174 107.641 489.344 118.628 478.356 122.552C475.217 123.651 471.136 124.435 466.898 124.435C457.951 124.435 447.749 121.296 440.686 112.349C435.192 105.443 432.524 94.9267 432.524 84.2533C432.524 73.423 435.192 62.2787 440.686 54.2737C446.493 45.7978 454.655 42.5016 462.503 42.5016C471.921 42.5016 480.868 47.3674 483.85 53.8028C485.106 56.6281 485.734 59.2964 485.734 61.6509C485.734 68.8711 480.868 74.3647 477.101 77.347ZM465.329 52.861C462.032 53.3319 459.364 56.7851 457.481 61.6509C456.068 65.4179 454.969 69.9698 454.341 74.9926C457.324 74.2078 459.992 73.109 463.445 70.9116C467.212 68.4002 469.724 64.0053 469.724 58.9825C469.724 55.5294 467.84 52.861 465.329 52.861ZM519.225 46.4256C520.324 45.6408 521.58 45.1699 522.992 45.1699C528.329 45.1699 535.392 50.8205 535.392 57.4129C535.392 62.2787 529.585 69.0281 529.585 69.0281C529.585 69.0281 531.782 75.4635 538.218 76.7192C538.688 76.8761 539.002 76.8761 539.473 76.8761C544.182 76.8761 548.577 72.3242 549.362 67.7724C552.658 67.7724 555.483 70.9116 555.483 75.6204C555.483 84.2533 546.85 89.1191 538.218 89.1191C530.84 89.1191 523.934 85.8229 519.539 80.6432C516.086 82.3698 512.319 88.6482 510.749 98.0659C510.435 99.6355 510.435 101.048 510.435 102.618C510.435 109.053 510.592 115.489 511.691 122.238C510.278 123.18 508.395 123.651 506.668 123.651C501.803 123.651 496.623 120.197 494.425 114.861C492.385 109.838 491.914 98.6938 491.914 86.9216C491.914 70.5977 492.385 61.4939 492.385 55.3724C492.385 50.9775 492.228 48.1522 491.757 47.6813C492.542 46.8965 494.111 46.4256 495.995 46.4256C497.722 46.4256 499.762 46.8965 501.803 47.8383C505.099 49.5648 508.238 52.7041 509.808 58.3547C510.592 61.023 510.906 65.5749 511.063 70.9116C512.005 69.0281 512.79 67.4584 513.732 66.0458C513.575 64.6331 513.418 63.0635 513.418 61.6509C513.418 54.5876 515.929 48.937 519.225 46.4256Z" fill="url(#paint0_linear_20_23)"/>
<defs>
<linearGradient id="paint0_linear_20_23" x1="9.47852" y1="-39" x2="542.273" y2="118.407" gradientUnits="userSpaceOnUse">
<stop stop-color="#FEDA75"/>
<stop offset="0.25" stop-color="#FA7E1E"/>
<stop offset="0.5" stop-color="#D62976"/>
<stop offset="0.75" stop-color="#962FBF"/>
<stop offset="1" stop-color="#4F5BD5"/>
</linearGradient>
</defs>
</svg>
