<svg width="807" height="205" viewBox="0 0 807 205" fill="none" xmlns="http://www.w3.org/2000/svg">
<rect width="204.308" height="204.308" rx="33.0417" fill="url(#paint0_linear_165_3)"/>
<path d="M58.8398 175.001C57.3067 175.371 56.6723 176.402 56.6723 177.407C56.6723 178.676 57.9675 179.707 59.3685 179.707C59.8707 179.707 60.5316 179.548 61.0338 179.204C62.4083 178.279 62.8048 175.9 62.9634 173.257C62.9899 172.86 62.9899 172.358 62.9899 171.856C62.9899 171.089 62.9634 169.953 62.937 169.054C62.9106 167.97 62.8841 166.833 62.8841 165.75C62.8841 164.349 62.9634 162.816 63.2542 161.177C61.7211 162.789 59.8443 165.115 59.8443 167.653C59.8443 168.869 60.7166 169.635 61.2981 170.798C61.3774 170.957 61.4039 171.089 61.4039 171.248C61.4039 172.199 60.1615 173.177 59.6064 173.415C58.4698 172.702 57.2538 171.38 57.2538 169.265C57.2538 167.468 58.0204 165.591 58.972 163.899C60.0029 162.075 61.2453 160.701 62.0383 160.093C62.6462 159.617 63.6243 159.432 64.5494 159.432C65.7125 159.432 66.8491 159.696 66.8491 160.067C66.8491 160.119 66.8227 160.146 66.7963 160.199C66.1619 161.124 66.0033 163.159 66.0033 165.38C66.0033 167.864 66.2147 170.349 66.2147 173.019C66.2147 175.9 65.2103 178.438 63.2542 180.103C62.2497 180.975 60.373 181.53 58.6812 181.53C57.1481 181.53 55.615 181.081 54.6898 180.077C54.1347 179.495 53.9232 178.808 53.9232 178.094C53.9232 176.244 55.4564 174.367 57.4917 174.367C57.6503 174.367 58.6812 174.393 58.8398 175.001ZM78.6122 178.702C78.9029 178.702 79.2201 178.543 79.5373 178.279C80.1982 177.724 80.8326 176.746 80.9647 175.927C81.2819 175.979 81.7049 176.349 81.7049 177.01C81.7049 177.169 81.652 177.407 81.5727 177.618C81.3084 178.358 80.7004 179.231 79.9338 179.812C79.4316 180.209 78.9029 180.447 78.48 180.447C77.7399 180.447 75.8367 180.077 75.1494 177.962C74.9379 177.248 74.8586 176.482 74.8586 175.715C74.8586 174.737 74.9644 173.706 75.0437 172.702C75.0965 171.988 75.2023 171.142 75.2023 170.455C75.2023 169.688 75.0701 169.133 74.6207 169.133C74.3828 169.133 74.0392 169.53 73.6691 170.191C73.1933 171.063 72.6382 172.384 72.1624 173.785C71.2637 176.297 70.4971 179.099 70.4971 179.892V180.077C70.4971 180.341 70.365 180.447 70.1799 180.447C69.572 180.447 68.2767 179.284 67.986 177.486C67.9067 177.037 67.8802 176.587 67.8802 176.138C67.8802 175.292 67.986 173.944 68.0917 172.755C68.1974 171.301 68.3296 169.768 68.3296 168.631C68.3296 168.076 68.3032 167.626 68.2503 167.256C68.3825 167.23 68.5411 167.204 68.6997 167.204C69.4927 167.204 70.365 167.732 70.7879 168.71C70.9465 169.054 70.9729 169.688 70.9729 170.376C70.9729 171.829 70.7086 173.521 70.7086 174.446C70.7086 174.42 70.735 174.393 70.735 174.341C70.8672 173.838 71.3166 172.12 71.9774 170.508C72.5325 169.16 73.114 167.917 73.6427 167.547C74.0392 167.256 74.4886 167.124 74.9644 167.124C76.2596 167.124 77.6606 168.102 78.0042 169.212C78.1364 169.662 78.1892 170.243 78.1892 170.878C78.1892 171.829 78.0835 172.913 78.0042 173.865C77.9778 174.314 77.8192 175.583 77.8192 176.693C77.8192 177.539 77.8456 178.702 78.6122 178.702ZM84.1301 180.394C82.2269 180.394 81.3282 179.231 80.8524 177.856C80.6674 177.328 80.6145 176.376 80.6145 175.028C80.6145 173.442 80.6938 171.38 80.7995 169.265C80.7995 168.975 80.826 168.525 80.8524 168.182C79.9272 168.155 79.2135 168.102 79.0814 168.102C79.0814 168.102 78.9756 167.759 78.9756 167.441C78.9756 167.23 79.0285 167.045 79.1871 166.992C79.5572 166.886 80.1651 166.833 80.8788 166.807C80.9053 166.093 80.9053 165.512 80.9053 164.64C80.9053 163.371 80.9053 162.604 81.1696 161.785C81.3282 161.626 81.5661 161.547 81.8304 161.547C82.597 161.547 83.575 162.287 83.998 164.058C84.0508 164.269 84.0773 164.745 84.0773 165.459C84.0773 165.855 84.0773 166.278 84.0508 166.754C84.5531 166.754 85.0024 166.781 85.4254 166.781C85.9276 166.781 86.3505 166.754 86.6413 166.701C86.6942 166.833 86.7206 166.992 86.7206 167.124C86.7206 167.547 86.4034 167.864 85.5047 168.023C85.1082 168.102 84.5531 168.155 83.9451 168.182C83.8922 168.71 83.8129 169.265 83.7072 169.794C83.4693 171.909 83.3371 173.733 83.3371 175.239C83.3371 176.957 83.5486 178.226 84.0244 178.596C84.2094 178.755 84.4209 178.808 84.6588 178.808C85.7161 178.808 87.0378 177.38 87.3021 175.847C87.5929 175.874 88.0423 176.217 88.0423 176.957C88.0423 177.169 88.0158 177.433 87.8837 177.777C87.2228 179.548 85.7426 180.394 84.1301 180.394ZM93.6806 172.147C92.544 173.045 90.958 173.442 89.5306 173.442C89.5306 175.134 89.8478 176.772 90.7465 177.698C91.3545 178.358 92.0682 178.649 92.7555 178.649C93.6542 178.649 94.5794 178.2 95.3195 177.46C96.0596 176.72 96.6147 175.689 96.7998 174.578C97.302 174.578 97.6721 175.107 97.6721 175.794C97.6721 175.9 97.6721 176.006 97.6456 176.112C97.4606 177.142 96.9319 178.041 96.1654 178.755C95.0816 179.759 93.6013 180.367 92.0153 180.367C90.4558 180.367 88.7376 179.839 87.5481 178.332C86.5965 177.142 86.1736 175.371 86.1736 173.548C86.1736 171.697 86.6229 169.794 87.5745 168.419C88.5261 167.019 89.9007 166.463 91.2223 166.463C92.8083 166.463 94.3415 167.256 94.8173 168.314C95.0287 168.737 95.108 169.16 95.108 169.583C95.108 170.534 94.6058 171.406 93.6806 172.147ZM91.6981 167.785C90.6672 167.785 89.8214 170.085 89.5835 172.199C90.2443 172.067 90.8523 171.856 91.5131 171.433C92.3061 170.878 92.729 169.926 92.729 169.212C92.729 168.472 92.2532 167.785 91.6981 167.785ZM95.9374 172.596C95.7788 170.904 95.6995 168.631 95.6995 166.543C95.6995 164.322 95.8052 162.181 96.096 161.071C96.3339 160.067 96.9418 159.617 97.6555 159.617C98.5014 159.617 99.1887 159.987 99.7173 160.542C100.669 161.573 101.118 163.265 101.118 164.666C101.118 167.309 100.22 169.979 99.1887 172.834V173.495C99.1887 176.006 99.3473 178.068 100.272 178.623C100.405 178.702 100.537 178.728 100.669 178.728C101.092 178.728 101.515 178.385 101.885 177.935C102.387 177.328 102.757 176.508 102.863 175.927C103.154 175.979 103.577 176.455 103.577 177.195C103.577 177.645 103.444 177.935 103.259 178.253C102.757 179.099 101.806 179.971 101.198 180.209C100.775 180.367 100.352 180.447 99.9288 180.447C98.9243 180.447 97.9727 180.024 97.2855 179.099C96.4925 178.015 96.2281 175.636 95.9374 172.596ZM98.5278 170.27C98.5278 170.27 99.5323 166.939 99.5323 165.062C99.5323 164.111 99.3473 163.318 98.8186 163.318C98.3164 163.318 98.2371 164.349 98.2371 165.697C98.2371 167.468 98.3428 169.001 98.5278 170.27ZM102.262 172.596C102.103 170.904 102.024 168.631 102.024 166.543C102.024 164.322 102.13 162.181 102.42 161.071C102.658 160.067 103.266 159.617 103.98 159.617C104.826 159.617 105.513 159.987 106.042 160.542C106.993 161.573 107.443 163.265 107.443 164.666C107.443 167.309 106.544 169.979 105.513 172.834V173.495C105.513 176.006 105.672 178.068 106.597 178.623C106.729 178.702 106.861 178.728 106.993 178.728C107.416 178.728 107.839 178.385 108.209 177.935C108.711 177.328 109.082 176.508 109.187 175.927C109.478 175.979 109.901 176.455 109.901 177.195C109.901 177.645 109.769 177.935 109.584 178.253C109.082 179.099 108.13 179.971 107.522 180.209C107.099 180.367 106.676 180.447 106.253 180.447C105.249 180.447 104.297 180.024 103.61 179.099C102.817 178.015 102.553 175.636 102.262 172.596ZM104.852 170.27C104.852 170.27 105.857 166.939 105.857 165.062C105.857 164.111 105.672 163.318 105.143 163.318C104.641 163.318 104.561 164.349 104.561 165.697C104.561 167.468 104.667 169.001 104.852 170.27ZM109.194 178.226C108.824 177.116 108.798 176.191 108.798 175.186C108.798 173.918 108.93 172.517 109.035 171.089C109.168 169.609 109.353 168.076 109.353 166.543H109.564C110.304 166.543 111.362 166.913 111.943 168.155C112.181 168.684 112.26 169.292 112.26 169.979C112.26 170.666 112.181 171.433 112.128 172.252C112.022 173.6 111.864 174.949 111.864 176.376C111.864 177.169 111.89 177.883 112.181 178.253C112.313 178.438 112.525 178.517 112.789 178.517C113.053 178.517 113.423 178.279 113.688 178.015C114.375 177.38 114.904 176.27 114.983 175.9C115.3 175.9 115.697 176.349 115.697 176.799C115.697 177.222 115.512 177.83 115.247 178.306C114.507 179.627 113.476 180.394 112.34 180.394C110.701 180.394 109.591 179.389 109.194 178.226ZM110.41 161.415C110.939 161.415 111.547 161.626 112.075 161.97C112.71 162.366 113.186 162.974 113.186 163.714C113.186 164.454 112.419 164.798 111.705 164.798C110.912 164.798 110.014 164.375 109.432 163.741C109.088 163.344 108.903 162.921 108.903 162.551C108.903 162.313 108.983 162.102 109.115 161.917C109.353 161.6 109.802 161.415 110.41 161.415ZM121.372 183.249C121.636 182.773 121.795 182.271 121.927 181.715C121.531 181.874 119.918 182.641 119.495 182.958C119.337 183.064 119.019 183.301 119.019 183.513C119.019 183.804 119.442 183.989 119.945 183.989C120.447 183.989 121.055 183.777 121.372 183.249ZM118.782 177.988C119.284 177.988 119.918 176.614 120.632 175.081C121.24 173.733 121.689 172.12 122.112 170.587C121.954 169.424 121.134 168.499 120.341 168.499C119.178 168.499 118.226 171.301 117.962 173.468C117.883 174.156 117.856 174.763 117.856 175.292C117.856 177.116 118.253 177.988 118.782 177.988ZM122.059 179.971C122.059 179.469 122.112 178.649 122.112 177.275C122.112 176.006 122.376 174.341 122.376 173.838C121.716 175.847 120.923 178.068 119.945 179.284C119.522 179.812 118.967 180.262 118.2 180.262C117.618 180.262 117.037 180.024 116.482 179.548C115.821 178.966 115.239 178.068 114.843 176.799C114.579 175.9 114.42 174.922 114.42 173.944C114.42 172.199 114.869 170.481 115.689 169.133C116.561 167.759 117.883 166.807 119.495 166.807C120.394 166.807 121.689 167.362 122.35 168.578C122.429 168.287 122.482 167.97 122.509 167.706C122.535 167.574 122.773 167.521 123.064 167.521C123.83 167.521 124.993 167.97 125.39 168.657C125.469 168.816 125.496 168.948 125.496 169.133C125.337 170.217 125.443 171.036 125.337 172.913C125.258 174.367 125.126 177.83 125.126 178.147C125.681 177.75 126.209 177.354 126.659 176.984C127.187 176.561 127.61 176.112 127.901 175.715C128.192 175.874 128.562 176.244 128.562 176.799C128.562 177.063 128.43 177.433 128.165 177.803C127.505 178.702 126.289 179.521 124.941 180.235C124.755 181.715 124.333 183.275 123.46 184.306C122.614 185.31 121.055 185.786 119.654 185.786C118.702 185.786 116.561 185.495 116.561 184.042C116.561 183.751 116.667 183.46 116.825 183.169C117.381 182.297 118.729 181.636 119.945 181.055C120.764 180.658 122.059 179.971 122.059 179.971ZM134.26 172.147C133.123 173.045 131.537 173.442 130.11 173.442C130.11 175.134 130.427 176.772 131.326 177.698C131.934 178.358 132.647 178.649 133.335 178.649C134.233 178.649 135.159 178.2 135.899 177.46C136.639 176.72 137.194 175.689 137.379 174.578C137.881 174.578 138.251 175.107 138.251 175.794C138.251 175.9 138.251 176.006 138.225 176.112C138.04 177.142 137.511 178.041 136.745 178.755C135.661 179.759 134.181 180.367 132.595 180.367C131.035 180.367 129.317 179.839 128.127 178.332C127.176 177.142 126.753 175.371 126.753 173.548C126.753 171.697 127.202 169.794 128.154 168.419C129.105 167.019 130.48 166.463 131.802 166.463C133.388 166.463 134.921 167.256 135.397 168.314C135.608 168.737 135.687 169.16 135.687 169.583C135.687 170.534 135.185 171.406 134.26 172.147ZM132.277 167.785C131.247 167.785 130.401 170.085 130.163 172.199C130.824 172.067 131.432 171.856 132.092 171.433C132.885 170.878 133.308 169.926 133.308 169.212C133.308 168.472 132.833 167.785 132.277 167.785ZM139.689 177.09C139.689 178.173 139.715 179.099 139.794 180.129C139.609 180.235 139.398 180.262 139.186 180.262C138.341 180.262 137.442 179.548 137.177 178.834C136.86 178.041 136.755 176.217 136.755 174.288C136.755 173.204 136.781 171.75 136.807 170.719C136.834 169.873 136.86 169.107 136.86 168.499C136.86 167.944 136.807 167.521 136.755 167.23C136.94 167.177 137.125 167.151 137.31 167.151C138.076 167.151 138.763 167.626 139.186 168.314C139.715 169.107 139.768 170.191 139.768 171.301V172.332C140.006 171.539 140.297 170.798 140.561 170.296C140.535 170.111 140.508 169.9 140.508 169.715C140.508 169.45 140.535 169.107 140.614 168.763C140.799 167.997 141.09 167.415 141.486 167.098C141.645 166.966 141.83 166.913 142.041 166.913C142.887 166.913 144.024 167.812 144.024 168.869C144.024 169.583 142.94 170.825 142.94 170.825C142.94 170.825 143.416 172.199 144.685 172.464C144.764 172.49 144.87 172.49 144.949 172.49C145.795 172.49 146.588 171.75 146.799 170.904C147.249 170.957 147.539 171.354 147.539 171.988C147.539 173.336 146.297 174.156 144.79 174.156C143.31 174.156 142.015 173.442 141.301 172.358C140.957 172.913 140.614 173.653 140.323 174.42C139.953 175.371 139.689 176.402 139.689 177.09Z" fill="white"/>
<path fill-rule="evenodd" clip-rule="evenodd" d="M109.95 30.2902C113.585 28.9511 122.346 26.8468 128.315 29.1424C134.555 31.5424 135.375 37.7566 135.812 41.0687L135.812 41.0689L135.812 41.0691L135.812 41.0694C135.898 41.717 135.969 42.2535 136.063 42.629C136.636 44.9246 138.932 46.0724 146.393 45.7854C152.361 45.5558 163.036 45.6898 167.627 45.7854C172.792 45.9767 183.352 49.2862 184.27 60.9937C185.188 72.7012 185.609 113.314 185.705 132.157C185.896 137.226 183.065 147.423 170.209 147.652C154.14 147.939 131.758 147.939 121.715 145.07L167.627 141.626C170.783 142.009 177.154 140.651 177.383 132.157C177.613 123.663 177.479 82.7062 177.383 63.2893C177.574 60.0372 175.891 53.4756 167.627 53.2461C159.363 53.0165 146.584 52.3852 141.228 52.0983C138.071 51.7157 131.586 49.9175 130.897 45.7854C130.701 44.6069 130.669 43.5778 130.641 42.681C130.546 39.6475 130.499 38.1283 124.298 37.4639C117.87 36.7752 113.394 35.4552 111.959 34.8813C115.594 34.2118 123.953 33.504 128.315 36.0291C127.454 34.4987 122.576 31.2084 109.95 30.2902ZM147.54 57.8373L165.618 56.6895C168.583 56.6895 174.514 58.4111 174.514 65.2979C174.514 73.9064 173.94 84.5235 172.505 89.6886C171.397 93.678 171.316 91.1623 171.204 87.6949C171.171 86.673 171.136 85.5685 171.07 84.5235C171.028 83.8484 171.023 82.832 171.017 81.592C170.982 74.3997 170.91 59.6855 163.323 60.4198C154.427 61.2806 143.81 60.1328 147.54 57.8373ZM32.4739 124.122V100.306C28.7436 96.5754 27.8827 121.54 29.3175 130.148C30.7522 138.757 38.2129 139.331 39.3607 139.331C39.6134 139.331 39.7965 139.317 40.0417 139.298L40.042 139.298C40.9108 139.232 42.5594 139.107 50.8387 139.331C59.3323 139.56 61.6471 137.513 61.7427 136.461C59.0645 136.653 51.5847 136.92 43.091 136.461C32.4739 135.887 32.4739 126.418 32.4739 124.122ZM82.977 145.07C83.6465 146.122 74.8276 148.111 34.1956 147.652C23.8655 147.652 19.9438 139.235 19.2743 135.027V61.8546C19.6569 56.6895 23.1194 46.3593 33.9087 46.3593C35.0565 46.2637 37.3521 45.6706 37.3521 44.0637C37.3521 43.8548 37.3366 43.6304 37.3204 43.3963C37.1809 41.3792 36.9916 38.6415 46.2475 38.8986C54.5116 39.1282 57.1516 40.1421 57.4385 40.6203C54.4734 40.6203 48.3709 40.7351 47.6822 41.1942C47.1901 41.5224 49.6056 41.5691 51.3359 41.6025C52.632 41.6276 53.5435 41.6452 52.5604 41.7681C51.6708 41.8793 50.5659 42.0767 49.4458 42.2767L49.4458 42.2767L49.4458 42.2768C47.6754 42.593 45.8673 42.9159 44.8127 42.9159H41.9433V46.3593H43.378C43.378 45.5941 44.0667 44.0637 46.8214 44.0637C50.2648 44.0637 51.1256 44.6376 51.1256 45.4985C51.1256 46.1871 58.7776 45.9767 62.6036 45.7854C64.5166 45.6898 68.5147 43.9489 69.2034 37.7508C70.0643 30.0032 79.5336 26.8468 92.7332 30.2902C88.2377 30.8641 78.6153 32.5858 76.0902 34.8814H88.429C87.3768 35.8379 83.6656 37.7508 77.238 37.7508C76.0902 37.8465 73.7372 38.7839 73.5076 41.7681L73.4905 41.9936C73.2045 45.7797 72.6838 52.6722 60.308 52.6722C57.9328 52.6722 55.3038 52.5402 52.5947 52.4041L52.5946 52.4041C40.903 51.8171 27.7208 51.1551 27.0219 60.7068C26.1611 72.4717 27.8828 79.6454 41.0824 79.9323C43.9557 79.9948 46.625 80.0301 49.0282 80.0618C57.6652 80.1759 62.8652 80.2447 61.7427 81.3671C60.6397 82.4701 49.3611 82.8947 42.2487 83.1625C40.1096 83.243 38.3473 83.3094 37.3521 83.3757C33.0478 83.6627 27.8828 81.3671 26.1611 76.489L27.0219 135.027C27.4045 137.418 30.2931 142.258 38.7868 142.487C49.4039 142.774 78.3858 143.635 82.977 145.07ZM64.3253 55.2547C68.7251 54.107 77.3527 49.6879 76.6641 41.1943C78.4814 46.5506 78.5579 56.8617 64.3253 55.2547ZM31.958 62.9643C32.4027 62.4343 33.1821 61.5054 36.7782 61.2807C40.2142 61.0659 46.0609 61.1726 49.7478 61.2399H49.7479H49.748H49.7481H49.7482H49.7482H49.7482C50.9876 61.2625 51.9828 61.2807 52.5604 61.2807C54.8559 61.2807 56.8646 61.8546 57.1515 63.2893H49.117C48.83 63.385 48.2561 63.978 48.2561 65.5849C48.2561 67.3498 47.5915 67.3424 45.0943 67.3147C44.7495 67.3108 44.3697 67.3066 43.9519 67.3066C43.1011 67.3066 42.3204 67.3416 41.6271 67.3727L41.6269 67.3728C39.5142 67.4676 38.2129 67.526 38.2129 66.4458C38.2129 66.2871 38.2269 66.118 38.2414 65.9434L38.2414 65.9433V65.9433V65.9433V65.9432C38.358 64.5384 38.504 62.7789 31.6131 63.2893C31.7375 63.2271 31.8349 63.111 31.958 62.9643ZM60.8819 90.8364C63.8451 63.0281 86.4203 57.359 96.1766 57.8373C69.4903 70.463 65.4731 81.654 66.9078 103.462C68.0556 120.909 85.9421 131.392 94.7418 134.453C89.8637 136.748 57.1515 125.844 60.8819 90.8364ZM105.646 57.8373C113.872 56.3069 132.504 58.9851 141.228 81.941C152.132 110.636 127.454 134.16 110.237 134.453C119.419 131.296 137.727 119.531 137.497 97.7232C137.21 70.463 116.55 61.8546 105.646 57.8373ZM105.646 64.4371C73.7731 68.5497 72.2928 95.2264 71.918 101.981C71.8744 102.767 71.8458 103.283 71.7859 103.462C68.3425 89.4017 71.7859 75.9374 84.4117 68.4544C94.5123 62.468 102.776 63.2819 105.646 64.4371ZM132.619 101.454C129.176 111.21 116.493 130.148 93.3071 127.853C98.7591 129.861 110.581 133.707 121.141 126.131C131.701 118.556 133.193 106.523 132.619 101.454ZM85.5595 99.4449C84.6986 85.6713 101.342 79.6454 102.489 79.6454C95.8896 77.3498 88.429 81.941 85.5595 88.8278C83.2639 94.3372 84.603 98.2014 85.5595 99.4449ZM122.692 96.5754C122.692 107.733 113.647 116.778 102.49 116.778C91.332 116.778 82.2871 107.733 82.2871 96.5754C82.2871 85.4179 91.332 76.3729 102.49 76.3729C113.647 76.3729 122.692 85.4179 122.692 96.5754ZM125.445 96.5754C125.445 109.254 115.168 119.531 102.49 119.531C89.8113 119.531 79.5336 109.254 79.5336 96.5754C79.5336 83.8972 89.8113 73.6195 102.49 73.6195C115.168 73.6195 125.445 83.8972 125.445 96.5754Z" fill="white"/>
<path d="M281.668 130.16C281.668 130.944 281.354 132.2 280.883 132.514C272.408 134.084 269.111 139.42 269.111 144.6C269.111 151.82 276.332 157 283.709 157C286.534 157 289.673 156.215 292.656 154.332C300.975 149.309 302.387 136.438 303.329 120.899C303.486 118.544 303.486 115.876 303.486 113.051C303.486 102.848 302.858 89.6636 302.858 77.4206C302.858 68.7877 303.172 60.7827 304.271 54.6612C304.271 54.6612 293.597 65.8054 289.359 78.8332C288.104 82.7573 287.633 85.8965 287.633 88.5648C287.633 97.3547 293.283 100.337 295.795 106.301C296.266 107.557 296.58 108.813 296.58 110.069C296.58 116.347 289.673 120.585 284.964 123.567C277.744 119.329 270.367 111.324 270.367 97.8256C270.367 94.5294 270.838 90.7623 271.937 86.6813C277.43 65.1776 291.557 49.0106 298.463 43.6739C302.23 40.8486 308.195 39.5929 313.845 39.5929C316.671 39.5929 327.658 40.5347 327.658 44.6157C327.658 45.0865 327.501 45.7144 327.187 46.1853C323.577 51.208 322.635 62.6662 322.635 75.2231C322.635 89.9775 324.048 106.615 324.048 116.19C324.048 135.653 321.066 149.78 306.782 161.709C300.504 166.889 289.987 170.342 279.628 170.342C270.524 170.342 261.577 167.673 255.77 161.395C252.473 157.785 251.061 153.39 251.061 148.995C251.061 137.694 260.635 126.079 272.878 126.079C277.744 126.079 281.668 127.962 281.668 130.16ZM408.808 135.339C411.32 135.339 415.087 137.851 415.087 142.717C415.087 143.815 414.93 145.228 414.459 146.641C411.947 154.489 402.059 163.906 395.467 163.906C391.072 163.906 379.927 162.494 375.532 148.838C374.277 145.228 373.963 140.519 373.963 135.653C373.963 132.043 374.12 128.276 374.434 124.666C374.905 117.917 375.689 111.167 375.689 106.458C375.689 102.22 375.062 99.5521 373.335 99.5521C369.725 99.5521 363.132 115.876 357.953 131.886C354.029 143.972 351.203 155.744 351.203 160.296C351.203 161.866 350.262 162.494 348.849 162.494C346.965 162.494 344.454 161.395 341.943 159.354C338.49 156.529 335.35 151.82 334.566 145.856C334.409 144.286 334.252 142.403 334.252 140.205C334.252 134.711 334.722 127.491 335.35 120.114C335.35 119.486 335.507 118.858 335.507 118.231C336.135 110.382 336.606 102.22 336.606 95.942C336.606 91.861 336.449 88.7218 335.821 86.5243C337.077 86.0535 338.333 85.7395 339.588 85.7395C344.768 85.7395 350.419 89.6636 352.616 95.1572C353.558 97.5116 353.872 101.279 353.872 105.203C353.872 112.58 352.93 118.701 352.459 122.625C354.97 112.423 360.935 92.8028 367.37 87.937C369.882 86.0535 372.707 85.2687 375.532 85.2687C383.38 85.2687 391.699 91.2332 393.897 98.1395C394.525 100.18 394.682 103.633 394.682 107.557C394.682 112.737 394.368 119.015 393.897 125.137C393.897 125.922 393.74 126.706 393.74 127.491C393.426 132.828 392.955 138.008 392.955 142.089C392.955 146.641 393.426 149.937 394.682 150.722C395.31 151.035 395.937 151.349 396.565 151.349C398.92 151.349 401.588 149.152 403.942 146.17C406.454 142.873 408.494 138.792 408.808 135.339ZM430.43 163.592C418.658 163.592 413.321 156.529 410.496 148.21C409.554 145.542 409.24 140.048 409.24 132.514C409.24 129.532 409.24 126.393 409.397 122.939C409.554 114.15 409.868 104.104 410.339 93.9015C405.002 93.7446 400.921 93.5876 400.921 93.5876C400.921 93.5876 400.293 92.018 399.979 90.1345C399.822 89.3496 399.665 88.7218 399.665 87.937C399.665 86.3674 400.293 84.9547 401.863 84.4838C403.746 83.856 406.885 83.5421 410.653 83.3851C410.809 79.618 410.809 76.4788 410.809 73.6535C410.809 70.2004 410.653 67.3751 410.653 64.8637C410.653 61.2536 410.966 58.2713 412.536 55.446C413.321 54.0333 415.047 53.2485 416.774 53.2485C418.658 53.2485 420.698 54.0333 422.582 55.289C425.878 57.4865 428.546 61.7244 430.43 68.3168C430.901 69.7295 431.058 72.7117 431.058 76.6358C431.058 78.6763 431.058 80.8737 430.901 83.2282C437.022 83.2282 442.516 83.2282 445.027 82.7573C445.655 84.1699 446.126 85.5826 446.126 86.9952C446.126 88.094 445.812 89.0357 445.184 89.9775C444.085 91.5471 441.888 92.8028 438.278 93.2737C436.08 93.5876 433.255 93.9015 430.116 93.9015C430.116 96.4129 429.331 99.3952 429.017 102.064C427.918 111.795 426.82 122.468 426.82 132.357C426.82 142.403 427.918 149.152 430.273 150.879C431.371 151.663 432.47 151.977 433.726 151.977C436.551 151.977 439.69 150.094 442.202 146.954C444.87 143.658 446.911 139.263 447.381 134.868C449.893 134.868 453.66 137.537 453.66 142.717C453.66 144.129 453.346 145.856 452.718 147.739C448.637 158.256 440.004 163.592 430.43 163.592ZM487.141 116.347C480.548 121.684 471.915 123.724 463.91 124.038C464.067 132.671 466.108 140.99 470.503 145.856C473.642 149.309 477.409 150.879 481.176 150.879C485.414 150.879 489.809 148.995 493.576 145.699C498.599 141.461 502.366 134.868 503.308 127.805C503.621 127.805 503.935 127.648 504.249 127.648C507.546 127.648 510.214 131.258 510.214 135.81C510.214 146.641 499.384 157.628 488.396 161.552C485.257 162.651 481.176 163.435 476.938 163.435C467.991 163.435 457.789 160.296 450.726 151.349C445.232 144.443 442.564 133.927 442.564 123.253C442.564 112.423 445.232 101.279 450.726 93.2737C456.533 84.7978 464.695 81.5016 472.543 81.5016C481.961 81.5016 490.908 86.3674 493.89 92.8028C495.146 95.6281 495.773 98.2964 495.773 100.651C495.773 107.871 490.908 113.365 487.141 116.347ZM475.368 91.861C472.072 92.3319 469.404 95.7851 467.52 100.651C466.108 104.418 465.009 108.97 464.381 113.993C467.363 113.208 470.032 112.109 473.485 109.912C477.252 107.4 479.763 103.005 479.763 97.9825C479.763 94.5294 477.88 91.861 475.368 91.861ZM500.384 117.917C499.442 108.499 498.972 95.942 498.972 84.013C498.972 70.8282 499.599 58.4283 501.169 51.8359C502.739 45.4005 506.663 42.7321 511.214 42.7321C513.726 42.7321 516.394 43.5169 518.906 44.9296C524.87 48.3827 530.207 55.289 531.463 63.7649C531.933 66.7472 532.09 69.5725 532.09 72.5548C532.09 79.618 530.992 86.8383 529.422 93.5876C526.911 103.947 523.457 113.208 521.103 119.486C521.103 126.549 521.103 132.828 521.731 138.165C522.359 144.443 523.771 149.152 526.754 150.879C527.382 151.192 528.009 151.349 528.637 151.349C531.306 151.349 534.131 148.524 536.328 145.071C538.369 141.775 539.938 137.694 539.938 135.339C540.095 135.339 540.409 135.182 540.723 135.182C543.078 135.182 546.217 138.008 546.217 143.344C546.217 143.972 546.217 144.6 546.06 145.228C545.275 151.663 536.799 160.453 531.776 162.337C529.108 163.435 526.283 163.906 523.614 163.906C517.807 163.906 512.47 161.395 508.232 155.587C503.68 149.152 501.954 135.653 500.384 117.917ZM516.551 101.279C516.551 101.279 518.749 92.8028 520.004 83.856C520.318 81.0307 520.789 77.4206 520.789 74.7522C520.789 70.0434 520.004 66.4333 517.336 66.4333C516.08 66.4333 515.609 72.0839 515.609 82.4433C515.609 91.5471 516.551 101.279 516.551 101.279ZM537.938 117.917C536.997 108.499 536.526 95.942 536.526 84.013C536.526 70.8282 537.154 58.4283 538.723 51.8359C540.293 45.4005 544.217 42.7321 548.769 42.7321C551.28 42.7321 553.948 43.5169 556.46 44.9296C562.424 48.3827 567.761 55.289 569.017 63.7649C569.488 66.7472 569.645 69.5725 569.645 72.5548C569.645 79.618 568.546 86.8383 566.976 93.5876C564.465 103.947 561.012 113.208 558.657 119.486C558.657 126.549 558.657 132.828 559.285 138.165C559.913 144.443 561.326 149.152 564.308 150.879C564.936 151.192 565.564 151.349 566.191 151.349C568.86 151.349 571.685 148.524 573.883 145.071C575.923 141.775 577.493 137.694 577.493 135.339C577.65 135.339 577.964 135.182 578.277 135.182C580.632 135.182 583.771 138.008 583.771 143.344C583.771 143.972 583.771 144.6 583.614 145.228C582.829 151.663 574.353 160.453 569.331 162.337C566.662 163.435 563.837 163.906 561.169 163.906C555.361 163.906 550.024 161.395 545.786 155.587C541.235 149.152 539.508 135.653 537.938 117.917ZM554.105 101.279C554.105 101.279 556.303 92.8028 557.559 83.856C557.872 81.0307 558.343 77.4206 558.343 74.7522C558.343 70.0434 557.559 66.4333 554.89 66.4333C553.635 66.4333 553.164 72.0839 553.164 82.4433C553.164 91.5471 554.105 101.279 554.105 101.279ZM597.938 163.592C587.108 163.592 580.672 156.686 578.161 147.896C577.219 144.6 576.905 139.42 576.905 133.142C576.905 117.132 579.731 91.0762 579.731 84.013C579.731 83.3851 579.574 82.6003 579.574 82.2864C580.515 82.1294 581.457 81.9725 582.713 81.9725C585.538 81.9725 588.834 82.7573 591.817 85.1117C594.485 87.3091 596.996 90.7623 598.252 96.4129C598.409 97.3547 598.566 98.6104 598.566 100.337C598.566 106.458 597.467 116.661 596.839 126.393C596.525 130.63 596.368 134.711 596.368 138.322C596.368 144.286 596.839 148.681 598.566 149.623C599.194 149.937 599.822 150.094 600.449 150.094C602.647 150.094 604.687 148.524 606.571 146.327C609.239 143.187 611.437 138.479 612.222 135.182C612.379 135.182 612.692 135.025 612.849 135.025C615.047 135.025 618.186 138.479 618.186 142.56C618.186 143.03 618.186 143.501 618.029 143.972C616.303 153.076 607.67 163.592 597.938 163.592ZM581.771 53.8764C583.341 53.0916 585.067 52.7776 586.951 52.7776C591.66 52.7776 596.996 55.1321 600.449 59.2131C602.647 61.8814 603.746 64.7067 603.746 67.2181C603.746 70.2004 602.333 72.5548 599.351 73.8105C597.938 74.5953 596.055 74.9092 594.328 74.9092C589.462 74.9092 583.812 72.3978 580.515 68.3168C578.318 65.8054 577.219 62.9801 577.219 60.6257C577.219 57.6435 578.789 55.289 581.771 53.8764ZM655.025 150.565C655.025 142.56 655.182 132.043 655.182 132.043C653.613 137.223 651.415 146.17 647.648 153.076C645.294 157.628 641.213 162.808 634.62 162.808C630.382 162.808 625.36 160.767 621.279 156.686C617.198 152.762 613.902 146.954 612.175 139.106C611.233 135.182 610.762 130.944 610.762 126.393C610.762 119.8 611.861 113.051 613.745 106.772C616.727 97.3547 622.377 89.1927 630.539 85.5826C633.522 84.3269 636.504 83.699 639.486 83.699C646.393 83.699 652.828 86.9952 657.066 92.9598L657.537 89.8205C657.694 88.2509 659.263 87.4661 661.461 87.4661C663.658 87.4661 666.484 88.2509 668.995 89.5066C672.605 91.2332 675.744 94.2155 675.744 97.6686C675.744 98.6104 675.273 103.319 674.96 108.813C674.646 115.248 674.489 122.939 674.332 129.375C674.175 135.967 674.175 139.891 673.861 148.681C680.296 144.286 685.633 139.577 688.301 135.653C690.97 136.909 693.481 139.734 693.481 143.501C693.481 145.385 692.853 147.582 691.127 149.937C687.359 155.273 680.453 159.982 672.762 164.063C671.506 172.539 669.152 181.172 664.129 187.137C659.577 192.473 652.043 195.299 644.509 195.769C638.074 195.769 626.301 195.612 623.319 186.823C623.005 185.881 623.005 184.939 623.005 184.154C623.005 175.678 633.365 170.813 642.939 166.418C645.765 165.005 650.003 162.965 654.712 160.296C654.868 156.686 655.025 153.076 655.025 150.565ZM643.096 97.3547C638.544 101.436 635.562 110.696 633.993 120.114C633.208 124.98 632.737 130.003 632.737 134.241C632.737 141.147 633.836 146.954 636.661 146.954C640.585 146.954 644.98 138.322 648.59 127.491C651.258 119.486 653.77 110.226 655.339 102.22C653.927 98.4534 651.258 95.1572 647.962 95.1572C646.393 95.1572 644.823 95.7851 643.096 97.3547ZM639.172 181.486C638.858 181.957 638.858 182.428 638.858 182.742C638.858 183.84 639.957 184.468 641.684 184.468C642.625 184.468 643.881 184.311 644.98 183.84C647.02 183.056 649.061 181.643 650.474 179.289C651.258 177.876 652.043 175.992 652.671 173.795C649.532 175.208 646.706 176.62 644.509 177.719C641.684 179.132 639.643 180.387 639.172 181.486ZM728.101 116.347C721.508 121.684 712.876 123.724 704.87 124.038C705.027 132.671 707.068 140.99 711.463 145.856C714.602 149.309 718.369 150.879 722.136 150.879C726.374 150.879 730.769 148.995 734.536 145.699C739.559 141.461 743.326 134.868 744.268 127.805C744.582 127.805 744.896 127.648 745.21 127.648C748.506 127.648 751.174 131.258 751.174 135.81C751.174 146.641 740.344 157.628 729.356 161.552C726.217 162.651 722.136 163.435 717.898 163.435C708.951 163.435 698.749 160.296 691.686 151.349C686.192 144.443 683.524 133.927 683.524 123.253C683.524 112.423 686.192 101.279 691.686 93.2737C697.493 84.7978 705.655 81.5016 713.503 81.5016C722.921 81.5016 731.868 86.3674 734.85 92.8028C736.106 95.6281 736.734 98.2964 736.734 100.651C736.734 107.871 731.868 113.365 728.101 116.347ZM716.329 91.861C713.032 92.3319 710.364 95.7851 708.481 100.651C707.068 104.418 705.969 108.97 705.341 113.993C708.324 113.208 710.992 112.109 714.445 109.912C718.212 107.4 720.724 103.005 720.724 97.9825C720.724 94.5294 718.84 91.861 716.329 91.861ZM770.225 85.4256C771.324 84.6408 772.58 84.1699 773.992 84.1699C779.329 84.1699 786.392 89.8205 786.392 96.4129C786.392 101.279 780.585 108.028 780.585 108.028C780.585 108.028 782.782 114.463 789.218 115.719C789.688 115.876 790.002 115.876 790.473 115.876C795.182 115.876 799.577 111.324 800.362 106.772C803.658 106.772 806.483 109.912 806.483 114.62C806.483 123.253 797.85 128.119 789.218 128.119C781.84 128.119 774.934 124.823 770.539 119.643C767.086 121.37 763.319 127.648 761.749 137.066C761.435 138.636 761.435 140.048 761.435 141.618C761.435 148.053 761.592 154.489 762.691 161.238C761.278 162.18 759.395 162.651 757.668 162.651C752.803 162.651 747.623 159.197 745.425 153.861C743.385 148.838 742.914 137.694 742.914 125.922C742.914 109.598 743.385 100.494 743.385 94.3724C743.385 89.9775 743.228 87.1522 742.757 86.6813C743.542 85.8965 745.111 85.4256 746.995 85.4256C748.722 85.4256 750.762 85.8965 752.803 86.8383C756.099 88.5648 759.238 91.7041 760.808 97.3547C761.592 100.023 761.906 104.575 762.063 109.912C763.005 108.028 763.79 106.458 764.732 105.046C764.575 103.633 764.418 102.064 764.418 100.651C764.418 93.5876 766.929 87.937 770.225 85.4256Z" fill="url(#paint1_linear_165_3)"/>
<defs>
<linearGradient id="paint0_linear_165_3" x1="204.308" y1="-1.21777e-05" x2="1.21777e-05" y2="204.308" gradientUnits="userSpaceOnUse">
<stop stop-color="#4F5BD5"/>
<stop offset="0.25" stop-color="#962FBF"/>
<stop offset="0.5" stop-color="#D62976"/>
<stop offset="0.75" stop-color="#FA7E1E"/>
<stop offset="1" stop-color="#FEDA75"/>
</linearGradient>
<linearGradient id="paint1_linear_165_3" x1="260.479" y1="0" x2="793.273" y2="157.407" gradientUnits="userSpaceOnUse">
<stop stop-color="#FEDA75"/>
<stop offset="0.25" stop-color="#FA7E1E"/>
<stop offset="0.5" stop-color="#D62976"/>
<stop offset="0.75" stop-color="#962FBF"/>
<stop offset="1" stop-color="#4F5BD5"/>
</linearGradient>
</defs>
</svg>
